# xmcd CD database file generated by OrangeCD 6.3
#
# Track frame offsets:
#	150
#	13767
#	29462
#	43745
#	59585
#	74330
#	89917
#	101735
#	119992
#	133240
#	148520
#	164555
#	183437
#	196320
#	208902
#	220560
#	235475
#
# Disc length: 3392 seconds
#
# Revision: 1
# Processed by: cddbd v1.5.2PL0 Copyright (c) Steve Scherf et al.
# Submitted via: OrangeCD 6.3
#
DISCID=190d3e11
DTITLE=Tamra Rosanes - Cowgirl In Love
DYEAR=2003
DGENRE=Country
TTITLE0=Let The Good Times Roll
TTITLE1=It Was Only You
TTITLE2=Cowgirl In Love
TTITLE3=Would You Lay With Me
TTITLE4=Every Little Thing
TTITLE5=I Just Wanna Dance With You
TTITLE6=Rub It In
TTITLE7=A Taste Of You
TTITLE8=Girls Night Out
TTITLE9=The End Of The World
TTITLE10=Hopeless Romantic
TTITLE11=I Bet You Say That To All The Girls
TTITLE12=My Toot Toot
TTITLE13=The Final Call
TTITLE14=Danish Style
TTITLE15=Oh Lonesome Me
TTITLE16=Help Me Make It Through The Night
EXTD=
EXTT0=
EXTT1=
EXTT2=
EXTT3=
EXTT4=
EXTT5=
EXTT6=
EXTT7=
EXTT8=
EXTT9=
EXTT10=
EXTT11=
EXTT12=
EXTT13=
EXTT14=
EXTT15=
EXTT16=
PLAYORDER=
